HIERARCHY
ROOT joint_Root
{
	OFFSET 0.0 0.0 0.0
	CHANNELS 6 Xposition Yposition Zposition Zrotation Xrotation Yrotation 
	JOINT Hips
	{
		OFFSET -17.1583 93.1646 452.98
		CHANNELS 6 Xposition Yposition Zposition Zrotation Xrotation Yrotation 
		JOINT Spine
		{
			OFFSET 15.7357 0.0 0.0
			CHANNELS 6 Xposition Yposition Zposition Zrotation Xrotation Yrotation 
			JOINT Chest
			{
				OFFSET 8.98455 -0.406207 0.0
				CHANNELS 6 Xposition Yposition Zposition Zrotation Xrotation Yrotation 
				JOINT Neck
				{
					OFFSET 16.3773 0.0 0.0
					CHANNELS 6 Xposition Yposition Zposition Zrotation Xrotation Yrotation 
					JOINT Head
					{
						OFFSET 6.45672 0.0 0.0
						CHANNELS 6 Xposition Yposition Zposition Zrotation Xrotation Yrotation 
						End Site
						{
							OFFSET 0.0 0.0 0.0
						}
					}
				}
				JOINT Shoulder_L
				{
					OFFSET 12.9942 -0.242716 4.98039
					CHANNELS 6 Xposition Yposition Zposition Zrotation Xrotation Yrotation 
					JOINT UpperArm_L
					{
						OFFSET 5.34809 0.0 0.0
						CHANNELS 6 Xposition Yposition Zposition Zrotation Xrotation Yrotation 
						JOINT LowerArm_L
						{
							OFFSET 24.3286 1.87007e-05 0.0
							CHANNELS 6 Xposition Yposition Zposition Zrotation Xrotation Yrotation 
							JOINT Hand_L
							{
								OFFSET 22.2916 0.0 0.0
								CHANNELS 6 Xposition Yposition Zposition Zrotation Xrotation Yrotation 
								End Site
								{
									OFFSET 0.0 0.0 0.0
								}
							}
						}
					}
				}
				JOINT Shoulder_R
				{
					OFFSET 12.9945 -0.242716 -4.98039
					CHANNELS 6 Xposition Yposition Zposition Zrotation Xrotation Yrotation 
					JOINT UpperArm_R
					{
						OFFSET -5.34813 0.0 0.0
						CHANNELS 6 Xposition Yposition Zposition Zrotation Xrotation Yrotation 
						JOINT LowerArm_R
						{
							OFFSET -24.3289 0.000322201 0.0
							CHANNELS 6 Xposition Yposition Zposition Zrotation Xrotation Yrotation 
							JOINT Hand_R
							{
								OFFSET -22.2915 -0.000108084 0.0
								CHANNELS 6 Xposition Yposition Zposition Zrotation Xrotation Yrotation 
								End Site
								{
									OFFSET 0.0 0.0 0.0
								}
							}
						}
					}
				}
			}
		}
		JOINT UpperLeg_L
		{
			OFFSET -2.19248 -6.46944 0.0
			CHANNELS 6 Xposition Yposition Zposition Zrotation Xrotation Yrotation 
			JOINT LowerLeg_L
			{
				OFFSET 39.0811 0.0 -1.23785e-05
				CHANNELS 6 Xposition Yposition Zposition Zrotation Xrotation Yrotation 
				JOINT Foot_L
				{
					OFFSET 40.9854 0.0 -1.26872e-05
					CHANNELS 6 Xposition Yposition Zposition Zrotation Xrotation Yrotation 
					JOINT Toes_L
					{
						OFFSET 11.7543 0.0 0.0
						CHANNELS 6 Xposition Yposition Zposition Zrotation Xrotation Yrotation 
						End Site
						{
							OFFSET 0.0 0.0 0.0
						}
					}
				}
			}
		}
		JOINT UpperLeg_R
		{
			OFFSET -2.19251 6.46944 0.0
			CHANNELS 6 Xposition Yposition Zposition Zrotation Xrotation Yrotation 
			JOINT LowerLeg_R
			{
				OFFSET -39.0811 -0.00228153 -0.0401928
				CHANNELS 6 Xposition Yposition Zposition Zrotation Xrotation Yrotation 
				JOINT Foot_R
				{
					OFFSET -40.9854 0.0 0.0
					CHANNELS 6 Xposition Yposition Zposition Zrotation Xrotation Yrotation 
					JOINT Toes_R
					{
						OFFSET -11.7543 0.0 0.0
						CHANNELS 6 Xposition Yposition Zposition Zrotation Xrotation Yrotation 
						End Site
						{
							OFFSET 0.0 0.0 0.0
						}
					}
				}
			}
		}
	}
}
MOTION
Frames:	5
Frame Time:	0.0333333
0.000000 0.000000 0.000000 0.000000 0.000000 -0.000000 -2.713550 92.773300 -1.149480 85.945500 0.756275 -0.477718 15.735700 0.000005 -0.000001 86.091100 88.135000 -83.991600 8.984550 -0.406207 -0.000000 -4.032750 -0.470120 4.184300 16.377300 -0.000001 -0.000001 4.313370 1.021100 -0.965036 6.456720 -0.000001 -0.000000 5.198220 0.651990 3.890930 12.994200 -0.242716 4.980390 -92.379100 7.245070 -71.766200 5.348090 -0.000007 -0.000001 -74.399200 11.655200 0.066329 24.328600 0.000019 0.000005 9.282650 25.148700 -21.036900 22.291600 -0.000001 0.000005 -1.873910 4.966600 8.021820 12.994500 -0.242716 -4.980390 88.263500 5.721070 -73.084000 -5.348130 -0.000001 -0.000004 -70.310600 30.450400 -3.128480 -24.328900 0.000322 -0.000009 2.497430 8.129920 -17.147500 -22.291500 -0.000108 -0.000004 0.141255 5.252050 1.378430 -2.192480 -6.469440 -0.000000 -174.187000 2.089350 -6.227910 39.081100 -0.000007 -0.000012 0.218665 -0.527303 22.523400 40.985400 -0.000006 -0.000013 -0.144619 7.113380 -72.539200 11.754300 -0.000000 0.000003 0.000443 0.159802 -10.095700 -2.192510 6.469440 -0.000001 -172.430000 7.905810 179.774000 -39.081100 -0.002282 -0.040193 0.033922 -0.143309 12.047900 -40.985400 0.000008 0.000006 0.940924 1.728110 -68.257100 -11.754300 -0.000006 -0.000006 -0.008557 0.260183 -6.005640
0.000000 0.000000 0.000000 0.000000 0.000000 -0.000000 -2.724530 92.780800 -1.219930 85.900500 0.704631 -0.513878 15.735700 0.000005 -0.000001 85.862700 88.115500 -83.726900 8.984550 -0.406207 -0.000000 -3.994220 -0.490777 4.256390 16.377300 -0.000001 -0.000001 4.257860 1.037340 -1.054640 6.456720 -0.000001 -0.000000 5.069600 0.655354 3.748030 12.994200 -0.242716 4.980390 -92.407600 7.315930 -71.727800 5.348090 -0.000007 -0.000001 -73.841500 9.735420 -0.702083 24.328600 0.000019 0.000005 9.018260 24.719200 -20.783400 22.291600 -0.000001 0.000005 -1.729070 4.954490 8.272570 12.994500 -0.242716 -4.980390 88.255400 5.736640 -73.052700 -5.348130 -0.000001 -0.000004 -70.251200 30.524600 -3.272170 -24.328900 0.000322 -0.000009 2.456730 7.988410 -17.163700 -22.291500 -0.000108 -0.000004 0.160298 5.253540 1.338940 -2.192480 -6.469440 -0.000000 -174.119000 2.048420 -6.335200 39.081100 -0.000007 -0.000012 0.214255 -0.515731 22.560300 40.985400 -0.000006 -0.000013 -0.224925 7.122860 -72.453500 11.754300 -0.000000 0.000003 0.000406 0.160485 -10.067900 -2.192510 6.469440 -0.000001 -172.359000 7.771810 179.709000 -39.081100 -0.002282 -0.040193 0.033761 -0.143245 11.991400 -40.985400 0.000008 0.000006 0.952111 1.621140 -68.170300 -11.754300 -0.000006 -0.000006 -0.008743 0.261656 -5.945440
0.000000 0.000000 0.000000 0.000000 0.000000 -0.000000 -2.726070 92.782100 -1.275570 85.878700 0.651947 -0.478568 15.735700 0.000005 -0.000001 85.460400 88.081800 -83.282200 8.984550 -0.406207 -0.000000 -3.928030 -0.525582 4.340400 16.377300 -0.000001 -0.000001 4.225130 1.088990 -1.170760 6.456720 -0.000001 -0.000000 4.951670 0.669706 3.465960 12.994200 -0.242716 4.980390 -92.453400 7.439540 -71.690100 5.348090 -0.000007 -0.000001 -73.247600 6.984620 -1.364270 24.328600 0.000019 0.000005 8.883260 24.068300 -20.968900 22.291600 -0.000001 0.000005 -1.478760 4.941760 8.533930 12.994500 -0.242716 -4.980390 88.258100 5.725370 -73.046800 -5.348130 -0.000001 -0.000004 -70.219500 30.512300 -3.361410 -24.328900 0.000322 -0.000009 2.471410 8.001760 -17.233300 -22.291500 -0.000108 -0.000004 0.191897 5.254850 1.304390 -2.192480 -6.469440 -0.000000 -174.088000 2.044470 -6.363110 39.081100 -0.000007 -0.000012 0.212713 -0.510532 22.619400 40.985400 -0.000006 -0.000013 -0.319970 7.101700 -72.421400 11.754300 -0.000000 0.000003 0.000529 0.158181 -10.161500 -2.192510 6.469440 -0.000001 -172.350000 7.817420 179.667000 -39.081100 -0.002282 -0.040193 0.033960 -0.143097 12.079900 -40.985400 0.000008 0.000006 0.840651 1.722330 -68.175200 -11.754300 -0.000006 -0.000006 -0.008797 0.262086 -5.927900
0.000000 0.000000 0.000000 0.000000 0.000000 -0.000000 -2.733620 92.789200 -1.350110 85.860900 0.597249 -0.498322 15.735700 0.000005 -0.000001 85.240500 88.071300 -83.028800 8.984550 -0.406207 -0.000000 -3.907720 -0.545006 4.406750 16.377300 -0.000001 -0.000001 4.219170 1.146240 -1.329680 6.456720 -0.000001 -0.000000 4.777960 0.661941 3.149680 12.994200 -0.242716 4.980390 -92.500300 7.577990 -71.679300 5.348090 -0.000007 -0.000001 -72.541400 3.899810 -1.804390 24.328600 0.000019 0.000005 9.030680 22.984900 -22.147000 22.291600 -0.000001 0.000005 -1.190460 4.903920 9.299140 12.994500 -0.242716 -4.980390 88.250800 5.725950 -72.981100 -5.348130 -0.000001 -0.000004 -70.184000 30.579000 -3.490630 -24.328900 0.000322 -0.000009 2.453710 7.959560 -17.201800 -22.291500 -0.000108 -0.000004 0.207216 5.256040 1.272610 -2.192480 -6.469440 -0.000000 -174.065000 1.937410 -6.435030 39.081100 -0.000007 -0.000012 0.213028 -0.510754 22.640700 40.985400 -0.000006 -0.000013 -0.316031 7.142000 -72.425100 11.754300 -0.000000 0.000003 0.000377 0.161020 -10.046300 -2.192510 6.469440 -0.000001 -172.316000 7.765730 179.601000 -39.081100 -0.002282 -0.040193 0.034200 -0.144410 12.064200 -40.985400 0.000008 0.000006 0.879976 1.713960 -68.117800 -11.754300 -0.000006 -0.000006 -0.008543 0.260077 -6.009970
0.000000 0.000000 0.000000 0.000000 0.000000 -0.000000 -2.742790 92.790900 -1.404120 85.843000 0.506844 -0.479472 15.735700 0.000005 -0.000001 85.606100 88.049600 -83.367400 8.984550 -0.406207 -0.000000 -3.862520 -0.525691 4.461510 16.377300 -0.000001 -0.000001 4.124930 1.188860 -1.474590 6.456720 -0.000001 -0.000000 4.672520 0.642379 2.681980 12.994200 -0.242716 4.980390 -92.567100 7.773610 -71.661200 5.348090 -0.000007 -0.000001 -71.679800 0.398825 -2.204370 24.328600 0.000019 0.000005 9.338880 21.725200 -23.954600 22.291600 -0.000001 0.000005 -0.764923 4.889630 9.584060 12.994500 -0.242716 -4.980390 88.244000 5.731060 -72.932800 -5.348130 -0.000001 -0.000004 -70.206500 30.568800 -3.515230 -24.328900 0.000322 -0.000009 2.447830 7.914110 -17.255200 -22.291500 -0.000108 -0.000004 0.208818 5.253630 1.336710 -2.192480 -6.469440 -0.000000 -174.022000 1.850000 -6.462520 39.081100 -0.000007 -0.000012 0.209571 -0.501641 22.674100 40.985400 -0.000006 -0.000013 -0.412775 7.169080 -72.331500 11.754300 -0.000000 0.000003 0.000594 0.156939 -10.211900 -2.192510 6.469440 -0.000001 -172.282000 7.694980 179.607000 -39.081100 -0.002282 -0.040193 0.033952 -0.143722 12.025800 -40.985400 0.000008 0.000006 1.017230 1.738730 -68.046200 -11.754300 -0.000006 -0.000006 -0.008271 0.257896 -6.099100
